<?xml version="1.0" standalone="no"?>
<!DOCTYPE svg PUBLIC "-//W3C//DTD SVG 20010904//EN"
 "http://www.w3.org/TR/2001/REC-SVG-20010904/DTD/svg10.dtd">
<svg version="1.0" xmlns="http://www.w3.org/2000/svg"
 width="195.000000pt" height="74.000000pt" viewBox="0 0 195.000000 74.000000"
 preserveAspectRatio="xMidYMid meet">

<g transform="translate(0.000000,74.000000) scale(0.100000,-0.100000)"
fill="#000000" stroke="none">
<path d="M230 680 c0 -5 -7 -10 -15 -10 -13 0 -13 -3 -3 -20 7 -11 20 -20 29
-20 25 0 30 35 8 49 -12 7 -19 7 -19 1z"/>
<path d="M320 635 c0 -8 5 -15 10 -15 6 0 10 7 10 15 0 8 -4 15 -10 15 -5 0
-10 -7 -10 -15z"/>
<path d="M560 624 c0 -8 5 -12 10 -9 6 3 10 10 10 16 0 5 -4 9 -10 9 -5 0 -10
-7 -10 -16z"/>
<path d="M736 623 c-12 -12 -6 -33 9 -33 8 0 15 6 15 14 0 17 -14 28 -24 19z"/>
<path d="M440 605 c0 -8 7 -15 15 -15 8 0 15 7 15 15 0 8 -7 15 -15 15 -8 0
-15 -7 -15 -15z"/>
<path d="M485 583 c-21 -20 -35 -57 -35 -89 l0 -25 -30 21 c-16 11 -55 30 -87
41 -32 10 -70 28 -85 39 -37 27 -36 8 1 -23 l30 -25 -32 -10 c-29 -9 -27 -10
31 -11 74 -1 127 -25 169 -75 l28 -34 2 72 c0 45 7 85 17 105 18 35 16 39 -9
14z"/>
<path d="M320 575 c0 -8 5 -15 10 -15 6 0 10 7 10 15 0 8 -4 15 -10 15 -5 0
-10 -7 -10 -15z"/>
<path d="M620 570 c0 -5 7 -10 15 -10 8 0 15 5 15 10 0 6 -7 10 -15 10 -8 0
-15 -4 -15 -10z"/>
<path d="M747 518 c-21 -21 -46 -38 -55 -38 -9 0 -42 -13 -72 -29 l-56 -29 3
36 c2 20 0 30 -3 22 -4 -8 -24 -43 -46 -76 -21 -34 -41 -79 -44 -100 l-6 -39
29 55 c32 61 67 89 151 120 63 24 116 60 133 91 16 31 8 28 -34 -13z"/>
<path d="M517 544 c-15 -15 -6 -40 14 -41 15 -1 19 3 17 19 -3 22 -19 33 -31
22z"/>
<path d="M680 530 c0 -5 5 -10 10 -10 6 0 10 5 10 10 0 6 -4 10 -10 10 -5 0
-10 -4 -10 -10z"/>
<path d="M803 533 c-16 -6 -5 -33 13 -33 8 0 14 6 14 14 0 18 -11 25 -27 19z"/>
<path d="M600 505 c0 -9 5 -15 11 -13 6 2 11 8 11 13 0 5 -5 11 -11 13 -6 2
-11 -4 -11 -13z"/>
<path d="M179 476 c-20 -15 -12 -46 11 -46 23 0 34 28 17 45 -10 9 -17 10 -28
1z"/>
<path d="M510 460 c0 -5 5 -10 10 -10 6 0 10 5 10 10 0 6 -4 10 -10 10 -5 0
-10 -4 -10 -10z"/>
<path d="M376 443 c-11 -11 -6 -23 9 -23 8 0 15 4 15 9 0 13 -16 22 -24 14z"/>
<path d="M286 431 c-4 -6 -4 -21 -1 -32 7 -20 5 -21 -31 -14 -21 3 -56 16 -79
27 l-40 20 24 -26 c21 -22 22 -26 7 -26 -23 0 -86 -30 -86 -41 0 -4 17 -1 37
8 24 11 68 17 120 17 46 1 83 4 83 7 0 21 -28 70 -34 60z"/>
<path d="M97 413 c-4 -3 -7 -12 -7 -20 0 -11 4 -11 20 -3 11 6 18 15 15 21 -7
11 -19 12 -28 2z"/>
<path d="M666 413 c-11 -11 -6 -23 9 -23 8 0 15 4 15 9 0 13 -16 22 -24 14z"/>
<path d="M752 408 c-13 -13 -4 -38 13 -38 18 0 25 23 10 37 -9 8 -16 8 -23 1z"/>
<path d="M380 380 c0 -5 5 -10 10 -10 6 0 10 5 10 10 0 6 -4 10 -10 10 -5 0
-10 -4 -10 -10z"/>
<path d="M890 371 c0 -6 4 -12 8 -15 13 -8 14 -97 1 -112 -6 -8 -8 -14 -3 -15
5 0 17 -2 27 -4 15 -3 17 2 11 30 -6 32 -4 34 27 43 37 9 50 41 29 68 -14 16
-100 20 -100 5z m85 -21 c8 -13 -13 -40 -31 -40 -8 0 -14 10 -14 25 0 18 5 25
19 25 11 0 23 -5 26 -10z"/>
<path d="M1405 301 c0 -68 2 -78 18 -77 18 1 20 6 11 30 -10 26 1 51 24 54 19
3 22 -1 22 -27 0 -16 -5 -33 -10 -36 -15 -9 -4 -22 17 -20 18 1 23 11 17 30
-2 6 -4 24 -6 40 -3 25 -8 31 -36 35 -18 3 -33 8 -32 13 1 29 -2 37 -12 37 -9
0 -13 -22 -13 -79z"/>
<path d="M1758 320 c3 -39 0 -65 -8 -75 -9 -11 -9 -15 -1 -16 6 -1 17 -2 24
-3 21 -4 28 5 17 19 -18 22 -8 60 15 60 23 0 33 -38 15 -60 -13 -16 1 -28 23
-19 11 4 14 15 10 42 -8 61 -11 65 -43 60 -27 -4 -30 -2 -30 24 0 16 -5 28
-13 28 -10 0 -12 -15 -9 -60z"/>
<path d="M1896 371 c-4 -5 -2 -12 3 -15 5 -4 12 -2 15 3 4 5 2 12 -3 15 -5 4
-12 2 -15 -3z"/>
<path d="M407 353 c-4 -3 -7 -24 -7 -45 0 -32 -3 -39 -17 -36 -10 2 -19 13
-21 25 -2 12 -10 27 -18 33 -12 10 -14 8 -14 -15 l0 -28 -26 28 c-32 34 -41
27 -18 -16 l17 -33 -32 27 c-52 44 -70 33 -25 -14 l26 -27 -42 9 c-23 5 -45 7
-51 4 -19 -12 -8 -23 29 -29 20 -3 70 -21 110 -40 l72 -35 0 -76 0 -75 35 0
35 0 0 122 c0 146 -25 250 -53 221z"/>
<path d="M571 351 c-16 -10 -3 -41 18 -41 9 0 17 8 18 19 2 22 -17 33 -36 22z"/>
<path d="M1333 345 c-23 -43 15 -150 44 -121 4 4 0 12 -10 17 -22 13 -22 58 1
75 16 12 16 13 0 14 -9 0 -18 8 -20 18 -4 15 -5 15 -15 -3z"/>
<path d="M1680 345 c0 -8 -5 -15 -12 -15 -9 0 -9 -3 0 -12 7 -7 12 -29 12 -49
0 -39 23 -60 44 -39 7 7 5 10 -7 10 -13 0 -17 9 -17 34 0 19 6 37 13 40 10 5
10 7 0 12 -7 3 -13 12 -13 20 0 8 -4 14 -10 14 -5 0 -10 -7 -10 -15z"/>
<path d="M796 333 c-12 -12 -6 -33 9 -33 8 0 15 6 15 14 0 17 -14 28 -24 19z"/>
<path d="M96 323 c-12 -12 -6 -33 9 -33 8 0 15 6 15 14 0 17 -14 28 -24 19z"/>
<path d="M667 317 c-16 -11 -10 -14 42 -28 33 -8 58 -12 55 -7 -3 4 -9 8 -14
8 -5 0 -21 5 -37 11 l-28 12 25 7 25 8 -26 1 c-14 1 -33 -5 -42 -12z"/>
<path d="M1018 318 c15 -15 16 -64 2 -73 -17 -10 -1 -25 23 -21 12 3 24 5 27
5 2 1 -1 6 -8 13 -20 20 -15 59 8 65 35 9 22 23 -22 23 -33 0 -39 -3 -30 -12z"/>
<path d="M1120 320 c0 -5 11 -10 25 -10 35 0 31 -16 -5 -23 -24 -5 -30 -12
-30 -31 0 -26 18 -36 60 -32 23 3 25 6 21 47 -1 24 -5 47 -8 52 -6 11 -63 9
-63 -3z m48 -62 c-7 -19 -38 -22 -38 -4 0 10 9 16 21 16 12 0 19 -5 17 -12z"/>
<path d="M1228 318 c-8 -21 3 -39 28 -48 25 -10 33 -30 11 -30 -7 0 -18 5 -25
12 -6 6 -15 8 -19 5 -14 -15 25 -40 52 -33 33 8 31 46 -2 61 -13 5 -23 16 -23
23 0 10 5 10 21 2 23 -13 35 -8 24 9 -9 15 -62 14 -67 -1z"/>
<path d="M1534 314 c3 -9 6 -25 6 -37 0 -36 16 -50 60 -52 38 -2 41 -1 36 19
-3 11 -6 36 -6 54 0 20 -5 32 -13 32 -10 0 -13 -13 -13 -42 1 -32 -3 -43 -14
-43 -8 0 -16 9 -18 20 -8 51 -14 65 -28 65 -11 0 -14 -5 -10 -16z"/>
<path d="M1886 278 c0 -48 3 -53 24 -56 20 -3 22 -1 17 20 -4 12 -7 38 -7 56
0 24 -4 32 -18 32 -14 0 -17 -9 -16 -52z"/>
<path d="M176 313 c-11 -11 -6 -23 9 -23 8 0 15 4 15 9 0 13 -16 22 -24 14z"/>
<path d="M488 257 c-13 -31 -18 -70 -18 -145 l0 -102 30 0 c30 0 30 1 30 54
l0 53 63 30 c34 17 78 34 97 38 19 4 39 10 44 12 17 11 -18 21 -53 16 l-36 -6
28 27 c24 23 26 26 9 26 -11 0 -25 -7 -32 -15 -21 -25 -32 -17 -14 10 14 22
14 25 1 25 -8 0 -22 -10 -30 -22 l-16 -23 0 23 c-1 32 -17 27 -30 -9 -12 -35
-35 -34 -38 2 0 13 -1 30 -2 37 -2 24 -16 11 -33 -31z"/>
<path d="M745 251 c-3 -5 -1 -12 5 -16 12 -7 30 2 30 16 0 12 -27 12 -35 0z"/>
</g>
</svg>
