 <svg version="1.0" xmlns="http://www.w3.org/2000/svg" width="700.000000pt" height="350.000000pt" viewBox="0 0 700.000000 350.000000" preserveAspectRatio="xMidYMid meet">
<metadata>
Created by potrace 1.12, written by Peter Selinger 2001-2015
</metadata>
<g transform="translate(0.000000,350.000000) scale(0.100000,-0.100000)" fill="#000000" stroke="none">
<path d="M905 2875 c-3 -8 -7 -22 -10 -31 -3 -9 -12 -13 -22 -10 -10 3 -25 1
-33 -4 -12 -8 -11 -13 9 -34 17 -18 22 -32 17 -50 -5 -21 -3 -26 12 -26 10 0
23 5 28 10 8 8 20 5 42 -7 24 -14 34 -15 43 -6 10 10 8 17 -7 34 -19 21 -19
21 11 45 25 20 28 26 15 34 -8 5 -23 10 -32 10 -10 0 -25 11 -34 25 -19 28
-32 32 -39 10z m35 -86 c0 -5 -7 -9 -15 -9 -15 0 -20 12 -9 23 8 8 24 -1 24
-14z"></path>
<path d="M1189 2761 c-20 -16 -22 -23 -13 -38 6 -10 22 -18 35 -18 21 0 24 5
24 34 0 42 -14 48 -46 22z"></path>
<path d="M1900 2735 c-24 -29 8 -75 44 -62 22 9 20 54 -3 67 -25 13 -26 13
-41 -5z"></path>
<path d="M2431 2686 c-14 -15 -19 -26 -12 -31 6 -3 8 -17 5 -32 -6 -24 -5 -25
19 -19 14 3 29 1 32 -4 10 -16 25 -1 25 24 0 12 5 27 11 33 7 7 2 17 -19 32
-37 26 -34 26 -61 -3z"></path>
<path d="M1556 2668 c-9 -12 -16 -35 -16 -50 0 -25 3 -27 34 -24 44 4 56 13
56 40 0 23 -28 56 -48 56 -6 0 -18 -10 -26 -22z"></path>
<path d="M845 2610 c-3 -5 0 -13 8 -16 9 -3 18 -16 21 -28 7 -28 101 -111 165
-146 31 -17 47 -33 49 -48 3 -21 1 -22 -25 -15 -34 10 -92 9 -190 -2 -165 -18
-35 -35 218 -28 l167 4 63 -33 c126 -64 279 -197 279 -241 0 -8 6 -20 14 -27
8 -6 16 -20 18 -31 2 -11 8 -20 13 -20 16 0 18 40 4 58 -33 39 -14 364 25 448
8 17 17 37 21 45 8 22 29 55 44 74 11 14 11 16 -3 16 -23 0 -89 -70 -114 -121
-28 -58 -51 -233 -33 -260 16 -27 4 -45 -17 -26 -16 14 -129 89 -217 145 -20
12 -44 22 -54 22 -9 0 -26 7 -37 15 -10 8 -38 15 -60 15 -24 0 -47 6 -54 15
-7 8 -21 15 -31 15 -24 0 -120 54 -144 80 -10 11 -23 20 -29 20 -6 0 -30 18
-53 40 -24 24 -44 36 -48 30z"></path>
<path d="M1177 2594 c-16 -16 -7 -63 14 -74 34 -19 51 -5 47 37 -3 32 -7 38
-28 41 -14 2 -29 0 -33 -4z"></path>
<path d="M2094 2556 c-12 -31 0 -51 30 -51 36 0 56 26 37 49 -17 20 -60 21
-67 2z"></path>
<path d="M2542 2445 c-66 -84 -196 -185 -238 -185 -7 0 -25 -7 -40 -15 -16 -8
-38 -15 -49 -15 -24 0 -176 -77 -251 -126 -28 -19 -54 -34 -58 -34 -12 0 -6
46 10 68 10 15 14 39 12 77 -3 61 -19 77 -28 30 -11 -51 -59 -142 -118 -223
-68 -93 -79 -110 -91 -139 -6 -11 -14 -24 -19 -27 -5 -3 -13 -26 -16 -51 -4
-24 -11 -47 -17 -50 -15 -10 -12 -128 4 -123 6 3 13 15 15 29 1 13 10 42 18
64 58 149 145 260 242 310 29 15 55 31 58 36 3 5 13 9 23 9 10 0 24 7 31 15 7
8 21 15 32 15 11 0 32 6 46 13 58 30 98 47 125 53 25 6 100 41 174 82 52 29
193 191 193 222 0 26 -21 13 -58 -35z"></path>
<path d="M1770 2435 c-21 -22 -22 -28 -10 -50 11 -20 11 -27 0 -40 -15 -18 -1
-20 35 -3 19 9 28 9 37 0 18 -18 30 -14 23 7 -3 11 0 29 7 40 11 17 9 24 -12
46 -30 32 -50 32 -80 0z"></path>
<path d="M2264 2436 c-12 -31 0 -51 31 -51 27 0 30 3 30 30 0 25 -4 30 -28 33
-17 2 -29 -2 -33 -12z"></path>
<path d="M2645 2422 c-17 -9 -32 -18 -34 -19 -2 -2 2 -9 8 -17 7 -8 10 -24 6
-35 -7 -22 9 -36 28 -24 6 4 21 8 32 8 28 0 34 64 8 87 -17 15 -20 15 -48 0z"></path>
<path d="M2042 2367 c-23 -24 -29 -61 -13 -71 14 -9 57 10 64 28 7 18 -8 66
-21 66 -5 0 -18 -10 -30 -23z"></path>
<path d="M770 2255 c-7 -19 -17 -25 -39 -25 -38 0 -48 -16 -20 -30 17 -10 20
-18 16 -46 -7 -41 5 -50 38 -28 24 16 27 16 45 -1 24 -22 43 -10 35 22 -4 19
0 32 16 49 23 25 20 29 -26 36 -12 2 -21 12 -23 26 -4 30 -30 28 -42 -3z m40
-59 c0 -11 -19 -15 -25 -6 -3 5 1 10 9 10 9 0 16 -2 16 -4z"></path>
<path d="M1768 2229 c-10 -5 -18 -21 -18 -34 0 -20 5 -25 25 -25 26 0 50 32
41 56 -6 16 -24 18 -48 3z"></path>
<path d="M1351 2149 c-17 -14 -22 -25 -17 -44 8 -33 60 -36 77 -4 9 18 7 25
-12 45 -24 23 -24 23 -48 3z"></path>
<path d="M1074 2135 c-6 -16 -2 -62 12 -137 l7 -38 -49 0 c-27 0 -67 5 -89 11
-22 6 -54 13 -72 16 -18 3 -38 11 -44 19 -6 8 -18 14 -26 14 -20 0 -69 28
-120 67 -38 31 -63 41 -63 27 0 -21 74 -89 119 -110 62 -29 58 -40 -14 -47
-67 -6 -141 -28 -220 -67 -70 -34 -83 -46 -67 -62 9 -9 21 -5 72 24 25 14 109
38 205 59 83 18 370 24 407 8 48 -20 55 0 22 68 -16 32 -33 80 -39 107 -10 51
-30 70 -41 41z"></path>
<path d="M500 2065 l-23 -25 23 -25 c35 -37 74 -31 78 12 2 23 -3 35 -20 47
-29 21 -30 21 -58 -9z"></path>
<path d="M2222 2067 c-25 -27 -29 -65 -7 -73 21 -8 70 10 72 27 2 8 -8 26 -20
42 l-23 27 -22 -23z"></path>
<path d="M2500 2045 c-6 -15 -17 -25 -29 -25 -29 0 -35 -17 -11 -30 14 -8 19
-17 15 -30 -7 -23 11 -36 30 -20 12 10 18 10 30 0 19 -16 37 -3 30 21 -4 12
-1 21 9 25 22 9 20 31 -4 39 -11 3 -25 15 -30 26 -14 26 -29 24 -40 -6z"></path>
<path d="M1357 1984 c-12 -12 -8 -41 7 -53 22 -18 58 4 54 32 -3 22 -45 36
-61 21z"></path>
<path d="M4433 1954 c-4 -12 2 -24 19 -38 26 -21 26 -22 30 -188 1 -91 1 -168
-2 -170 -3 -2 -14 -8 -25 -14 -11 -6 -20 -17 -20 -25 0 -11 17 -14 70 -14 58
0 70 3 73 17 2 12 -6 21 -23 28 -25 10 -26 11 -23 97 l3 88 39 18 c37 18 42
18 73 3 l33 -16 0 -90 c0 -85 -1 -90 -25 -106 -41 -27 -16 -41 68 -40 56 1 72
4 72 16 0 8 -11 17 -25 20 -24 6 -25 9 -30 114 -5 103 -6 109 -33 132 -34 29
-116 34 -137 9 -7 -8 -19 -15 -26 -15 -11 0 -14 20 -14 90 l0 90 -29 0 c-16 0
-36 3 -45 6 -10 4 -18 -1 -23 -12z"></path>
<path d="M5488 1952 c-10 -12 -7 -18 15 -36 l27 -21 -2 -169 c-1 -167 -1 -168
-25 -179 -13 -6 -22 -17 -21 -26 3 -13 17 -16 72 -16 74 0 99 17 51 35 -26 10
-26 10 -23 106 l3 96 42 14 c38 13 46 13 72 -1 29 -14 30 -17 33 -100 4 -101
3 -104 -29 -116 -44 -17 -21 -34 50 -37 54 -2 68 0 73 13 4 10 -1 22 -15 31
-19 14 -21 25 -21 104 0 86 -1 91 -31 125 -27 30 -37 35 -77 35 -28 0 -52 -6
-64 -17 -28 -25 -37 -7 -40 86 l-3 83 -38 3 c-23 1 -42 -4 -49 -13z"></path>
<path d="M2903 1944 c-8 -22 4 -42 28 -46 22 -3 22 -5 22 -166 l0 -164 -29
-23 c-41 -33 -23 -47 57 -43 51 2 64 6 67 21 2 10 -5 20 -19 25 -20 8 -23 16
-24 81 -2 75 10 99 41 87 9 -4 39 -3 66 0 104 14 152 112 92 184 -40 47 -81
60 -195 58 -75 -1 -102 -4 -106 -14z m245 -67 c14 -13 22 -32 22 -53 0 -26 -7
-36 -34 -53 -37 -23 -108 -28 -124 -8 -11 13 -11 115 1 134 12 19 108 4 135
-20z"></path>
<path d="M5937 1942 c-22 -24 -21 -35 3 -57 19 -17 21 -17 40 0 25 22 25 37 2
58 -23 21 -25 21 -45 -1z"></path>
<path d="M1473 1903 c-7 -2 -22 -20 -34 -39 -19 -31 -20 -43 -14 -114 10 -113
3 -134 -53 -162 -104 -50 -313 -52 -424 -4 -21 9 -56 16 -78 16 -22 0 -48 5
-58 11 -25 16 -95 -14 -90 -38 3 -14 20 -20 86 -29 45 -6 88 -16 94 -22 7 -7
26 -12 43 -12 17 0 40 -7 51 -15 10 -8 29 -15 40 -15 12 0 27 -7 34 -15 7 -8
20 -15 30 -15 9 0 37 -11 61 -25 41 -23 50 -28 82 -40 6 -3 19 -9 27 -14 8 -5
38 -19 65 -31 85 -39 80 -24 78 -247 -1 -109 -4 -209 -5 -222 -3 -23 -1 -24
78 -24 93 0 109 6 94 33 -13 24 -13 425 -1 449 15 27 17 269 3 283 -7 7 -12
23 -12 36 0 24 -15 64 -52 137 -12 25 -18 54 -16 79 3 38 -5 49 -29 39z m81
-361 c5 -37 2 -60 -13 -93 -10 -24 -24 -75 -31 -114 -7 -38 -17 -75 -22 -82
-14 -18 -38 -4 -38 23 0 29 -122 171 -175 204 -42 26 -46 50 -7 50 15 0 41 4
58 9 21 6 36 5 49 -5 10 -8 34 -14 53 -14 28 0 42 8 70 40 20 21 39 37 42 35
4 -3 10 -26 14 -53z"></path>
<path d="M4251 1891 c-6 -11 -11 -33 -11 -50 0 -24 -4 -31 -19 -31 -34 0 -34
-21 0 -50 32 -26 33 -29 20 -53 -10 -19 -12 -46 -8 -99 5 -62 10 -76 32 -95
30 -27 86 -31 105 -8 17 21 4 33 -40 37 l-35 3 -6 100 c-3 60 -1 105 4 113 6
7 24 12 41 10 25 -2 32 1 34 19 3 19 -2 22 -40 25 l-43 3 0 44 c0 48 -17 64
-34 32z"></path>
<path d="M1963 1884 c-3 -8 -17 -20 -30 -25 -19 -7 -23 -14 -18 -27 4 -9 10
-29 13 -45 6 -35 20 -44 39 -24 14 13 18 13 43 -1 34 -20 50 -10 27 16 -15 17
-15 19 -1 34 15 15 14 19 -19 52 -41 41 -45 42 -54 20z"></path>
<path d="M5290 1881 c-5 -11 -9 -30 -7 -42 1 -19 -4 -24 -27 -29 -34 -6 -46
-27 -19 -36 46 -14 47 -16 44 -117 -1 -53 0 -105 4 -116 3 -11 22 -29 41 -40
32 -19 38 -20 70 -6 45 19 40 38 -12 45 l-39 5 -5 100 c-3 55 -2 105 3 110 4
6 20 10 35 10 20 0 28 6 30 22 3 19 -2 22 -35 25 l-38 3 3 43 c3 37 1 42 -17
42 -11 0 -25 -9 -31 -19z"></path>
<path d="M1030 1816 c0 -13 7 -29 15 -36 8 -7 15 -17 15 -22 0 -5 18 -33 40
-61 34 -46 37 -54 25 -67 -13 -12 -21 -9 -62 31 -66 62 -166 124 -184 113 -16
-9 -9 -44 9 -51 9 -3 40 -28 69 -55 29 -26 63 -52 77 -57 33 -13 299 -8 303 5
2 6 -8 21 -22 34 -18 17 -25 34 -25 61 0 21 -4 41 -10 44 -5 3 -10 14 -10 24
0 10 -11 28 -25 41 -38 36 -48 16 -28 -55 33 -121 16 -158 -35 -78 -59 91 -77
113 -110 133 -41 25 -42 25 -42 -4z"></path>
<path d="M2611 1799 c-33 -44 -23 -79 24 -79 49 0 62 27 34 74 -12 20 -24 36
-28 36 -4 0 -17 -14 -30 -31z"></path>
<path d="M2228 1778 c-75 -40 -76 -58 -4 -58 35 0 58 -5 66 -15 7 -8 29 -15
49 -15 21 0 46 -7 57 -15 24 -18 97 -20 92 -2 -3 6 -18 13 -36 15 -17 2 -36
10 -42 18 -7 8 -26 14 -42 14 -40 0 -101 27 -96 42 3 8 31 15 78 18 46 3 75
10 78 18 3 9 -15 12 -70 11 -62 0 -82 -5 -130 -31z"></path>
<path d="M3283 1793 c-4 -11 1 -22 15 -31 20 -13 22 -23 22 -105 0 -87 -1 -92
-27 -113 -41 -33 -21 -46 68 -42 57 2 74 6 74 18 0 8 -9 16 -20 18 -34 6 -38
18 -36 104 2 98 12 113 74 113 38 0 42 2 42 25 0 21 -5 26 -33 28 -21 2 -41
-3 -52 -13 -15 -14 -18 -14 -30 0 -18 21 -89 20 -97 -2z"></path>
<path d="M3599 1791 c-23 -19 -23 -21 -7 -37 14 -14 21 -15 30 -6 16 16 100
16 116 0 7 -7 12 -25 12 -41 0 -29 -1 -29 -44 -23 -34 5 -53 2 -81 -13 -48
-26 -64 -48 -65 -92 0 -42 22 -67 77 -85 30 -11 40 -10 59 2 17 12 37 14 77 9
64 -8 80 5 48 39 -18 19 -21 34 -21 116 0 88 -2 96 -27 122 -24 25 -34 28 -89
28 -46 0 -68 -5 -85 -19z m149 -183 c6 -50 -13 -68 -69 -68 -42 0 -51 3 -60
24 -22 48 17 76 101 72 19 -1 26 -7 28 -28z"></path>
<path d="M3937 1792 c-11 -12 -17 -36 -17 -64 0 -42 3 -47 40 -72 22 -14 48
-26 59 -26 11 0 32 -10 47 -23 23 -20 25 -26 15 -45 -16 -30 -90 -31 -116 -2
-12 13 -29 20 -44 18 -35 -4 -40 -35 -8 -47 14 -6 28 -14 31 -20 4 -6 24 -15
45 -21 47 -12 83 -1 124 38 23 22 26 31 21 61 -7 39 -30 71 -50 71 -7 0 -27 8
-46 17 -18 9 -39 19 -47 23 -8 3 -19 14 -25 24 -9 14 -6 21 13 37 32 26 44 24
85 -12 20 -17 43 -29 53 -27 29 5 28 39 -4 64 -37 31 -150 35 -176 6z"></path>
<path d="M4837 1804 c-15 -16 -6 -45 17 -54 23 -8 24 -14 28 -114 2 -69 7
-110 16 -118 16 -16 259 -21 268 -6 3 5 -3 19 -15 32 -18 19 -21 36 -23 141
l-3 120 -43 3 c-53 4 -69 -20 -32 -50 21 -17 23 -26 21 -101 -3 -96 -15 -117
-71 -117 -26 0 -43 7 -59 24 -22 23 -23 31 -19 133 l3 108 -40 3 c-23 2 -44 0
-48 -4z"></path>
<path d="M5884 1796 c-9 -24 2 -44 28 -48 22 -3 23 -6 23 -98 0 -92 -1 -94
-25 -100 -16 -4 -25 -13 -25 -25 0 -17 8 -20 55 -22 30 -1 64 -3 75 -5 32 -5
27 44 -5 52 -25 6 -25 6 -26 130 l0 125 -47 3 c-35 2 -49 -1 -53 -12z"></path>
<path d="M497 1774 c-11 -15 -17 -37 -15 -57 3 -31 4 -32 43 -29 22 2 41 5 43
7 2 1 6 19 9 39 5 29 3 36 -11 36 -9 0 -19 7 -22 15 -9 22 -26 18 -47 -11z"></path>
<path d="M740 1755 c-31 -33 -14 -65 35 -65 19 0 35 4 35 9 0 5 2 16 5 23 3 8
-7 23 -24 35 l-29 22 -22 -24z"></path>
<path d="M1727 1723 c-4 -3 -7 -21 -7 -40 0 -18 -13 -58 -29 -88 -16 -29 -31
-71 -34 -92 -4 -21 -12 -72 -18 -113 -10 -59 -10 -93 0 -165 10 -74 14 -244 7
-354 -1 -24 1 -24 79 -23 l80 0 1 162 c1 154 2 162 22 173 12 7 70 36 129 66
60 29 120 60 135 67 14 8 34 14 45 14 10 0 27 7 37 15 11 8 30 15 42 15 12 0
35 7 51 15 15 8 53 17 84 20 66 7 101 27 82 46 -8 8 -39 12 -90 11 -84 -3
-110 -8 -133 -27 -8 -7 -44 -15 -80 -19 -66 -6 -94 -24 -84 -51 8 -20 -94 -67
-117 -54 -46 24 -100 -5 -114 -63 -4 -14 -15 -34 -26 -44 -15 -13 -19 -31 -19
-76 0 -63 -6 -68 -53 -47 -26 12 -28 20 -43 229 -10 128 17 155 108 109 42
-21 171 -36 210 -24 38 13 16 25 -43 25 -62 0 -100 14 -146 54 -21 18 -23 28
-23 126 0 91 -3 109 -18 123 -20 19 -26 20 -35 10z"></path>
<path d="M1956 1651 c-9 -9 -25 -47 -37 -84 -11 -36 -27 -71 -35 -78 -8 -6
-14 -18 -14 -25 0 -11 20 -14 90 -14 76 0 90 3 90 16 0 9 14 33 30 54 17 21
30 41 30 45 0 3 11 21 25 39 31 41 32 56 1 56 -25 0 -58 -35 -110 -117 -44
-71 -92 -45 -51 27 16 28 20 86 6 94 -4 3 -16 -3 -25 -13z"></path>
<path d="M2502 1648 c3 -7 13 -15 22 -16 12 -3 17 1 14 10 -3 7 -13 15 -22 16
-12 3 -17 -1 -14 -10z"></path>
<path d="M2163 1533 c-45 -37 -79 -71 -77 -75 9 -14 61 -9 74 7 7 8 18 15 26
15 7 0 18 8 23 18 5 9 30 32 55 51 49 37 51 51 7 51 -19 0 -52 -20 -108 -67z"></path>
<path d="M2483 1585 c-38 -16 -38 -17 -17 -50 27 -41 94 -29 94 15 0 15 -30
51 -41 50 -2 -1 -19 -7 -36 -15z"></path>
</g>
</svg>